<?xml version="1.0" encoding="UTF-8" standalone="no"?>
<!-- Generator: Adobe Illustrator 27.5.0, SVG Export Plug-In . SVG Version: 6.00 Build 0)  -->

<svg
   version="1.1"
   x="0px"
   y="0px"
   viewBox="0 0 500 500"
   style="enable-background:new 0 0 500 500;"
   xml:space="preserve"
   id="svg150"
   sodipodi:docname="9629582_4219333.svg"
   inkscape:version="1.1.2 (b8e25be833, 2022-02-05)"
   xmlns:inkscape="http://www.inkscape.org/namespaces/inkscape"
   xmlns:sodipodi="http://sodipodi.sourceforge.net/DTD/sodipodi-0.dtd"
   xmlns:xlink="http://www.w3.org/1999/xlink"
   xmlns="http://www.w3.org/2000/svg"
   xmlns:svg="http://www.w3.org/2000/svg"><defs
   id="defs154" /><sodipodi:namedview
   id="namedview152"
   pagecolor="#ffffff"
   bordercolor="#666666"
   borderopacity="1.0"
   inkscape:pageshadow="2"
   inkscape:pageopacity="0.0"
   inkscape:pagecheckerboard="0"
   showgrid="false"
   inkscape:zoom="1.662"
   inkscape:cx="249.69916"
   inkscape:cy="272.56318"
   inkscape:window-width="1920"
   inkscape:window-height="1017"
   inkscape:window-x="-8"
   inkscape:window-y="-8"
   inkscape:window-maximized="1"
   inkscape:current-layer="svg150" />

<g
   id="OBJECTS"
   transform="translate(-38.164863,-8.06872)">
	<g
   id="g61">
		
		
		<g
   id="g59">
			<g
   id="g51">
				
				
				
				<g
   id="g49">
					<defs
   id="defs22">
						<path
   id="SVGID_1_"
   d="m 141.876,86.352 c 0,10.057 -8.153,18.209 -18.209,18.209 -10.057,0 -18.21,-8.152 -18.21,-18.209 0,-10.057 8.153,-18.209 18.21,-18.209 10.057,0 18.209,8.152 18.209,18.209 z" />
					</defs>
					<clipPath
   id="SVGID_00000008827487527290192110000009476116888132144515_">
						<use
   xlink:href="#SVGID_1_"
   style="overflow:visible"
   id="use24"
   x="0"
   y="0"
   width="100%"
   height="100%" />
					</clipPath>
					<g
   clip-path="url(#SVGID_00000008827487527290192110000009476116888132144515_)"
   id="g47">
						<g
   id="g35">
							<g
   id="g29">
								
							</g>
							<g
   id="g33">
								
							</g>
						</g>
						<g
   id="g45">
							<g
   id="g39">
								
							</g>
							<g
   id="g43">
								
							</g>
						</g>
					</g>
				</g>
			</g>
			
			
			
		</g>
	</g>
	<g
   id="g83"
   transform="matrix(2.4250941,0,0,2.4250941,-621.5919,-699.93641)">
		<path
   id="polygon63"
   style="fill:#313341"
   d="m 371.33008,305.68945 v 0.0176 l -46.64453,40.64844 v 63 h 93.3125 v -63 l -46.64649,-40.64844 v -0.0176 l -0.008,0.01 z" />
		<g
   id="g73">
			<g
   id="g67">
				<path
   id="text65"
   style="font-size:21.8912px;font-family:Inter-Bold;fill:#313341"
   d="m 321.09375,423.20312 v 1.88086 h 5.6875 v 14.03516 h 2.11523 v -14.03516 h 5.6875 v -1.88086 z m 15.62695,0 v 15.91602 h 2.11719 v -6.32812 h 2.98242 l 5.32227,6.32812 h 2.74804 l -5.98632,-6.95898 c 1.01189,-0.39194 1.80755,-0.97258 2.38476,-1.74219 0.57721,-0.77674 0.86524,-1.73943 0.86524,-2.88672 0,-0.848 -0.16439,-1.547 -0.49219,-2.0957 -0.32067,-0.55583 -0.77045,-1.01548 -1.34766,-1.37891 -0.51307,-0.32067 -1.08912,-0.54097 -1.73047,-0.66211 -0.64134,-0.12827 -1.44228,-0.19141 -2.40429,-0.19141 z m 19.15625,0 -5.79492,15.91602 h 2.14844 l 1.56055,-4.4375 h 6.88476 l 1.56055,4.4375 h 2.25586 l -5.79492,-15.91602 z m 8.5293,0 5.79297,15.91602 h 2.82226 l 5.79297,-15.91602 h -2.1582 l -4.99219,14.00196 -4.99218,-14.00196 z m 16.82422,0 v 15.91602 h 10.48633 v -1.88281 h -8.36914 v -5.91016 h 8.36914 v -1.88086 h -8.36914 v -4.36133 h 8.36914 v -1.88086 z m 13.8418,0 v 15.91602 h 10.07031 v -1.88281 h -7.95313 v -14.03321 z m -56.23438,1.81641 h 2.49023 c 0.57009,0 1.0659,0.0434 1.48633,0.12891 0.42044,0.0784 0.78343,0.22108 1.08985,0.42773 0.37055,0.24229 0.63424,0.54018 0.79101,0.89649 0.1639,0.34917 0.2461,0.75291 0.2461,1.20898 0,0.59859 -0.0776,1.09244 -0.23438,1.48438 -0.14965,0.3848 -0.38636,0.72805 -0.70703,1.02734 -0.34918,0.32067 -0.77266,0.54097 -1.27148,0.66211 -0.49883,0.11402 -1.08211,0.17187 -1.75196,0.17187 h -2.13867 z m 18.39649,0.0312 2.78906,7.81445 h -5.58985 z" />
			</g>
			<g
   id="g71">
				<path
   id="text69"
   style="font-size:11.614px;font-family:Inter-Bold;fill:#313341"
   d="m 364.17188,445.93359 c -0.58222,0 -1.12193,0.0983 -1.61719,0.29493 -0.49148,0.19659 -0.90364,0.48106 -1.23633,0.85156 -0.34782,0.3894 -0.6115,0.85806 -0.79297,1.40625 -0.18147,0.5444 -0.27148,1.15959 -0.27148,1.84765 0,0.69942 0.09,1.32083 0.27148,1.86524 0.18525,0.54441 0.44881,1.00463 0.78906,1.3789 0.34026,0.37428 0.75241,0.65888 1.23633,0.85547 0.4877,0.19659 1.02754,0.29493 1.6211,0.29493 0.60867,0 1.14851,-0.0963 1.62109,-0.28907 0.47635,-0.19281 0.88851,-0.47948 1.23633,-0.86133 0.33647,-0.36671 0.59795,-0.82486 0.7832,-1.37304 0.18903,-0.55197 0.2832,-1.17547 0.2832,-1.8711 0,-0.69563 -0.0921,-1.31704 -0.27734,-1.86523 -0.18147,-0.54819 -0.44503,-1.01061 -0.78906,-1.38867 -0.33648,-0.36672 -0.74656,-0.64911 -1.23047,-0.8457 -0.48014,-0.20038 -1.02206,-0.30079 -1.62695,-0.30079 z m 17.05273,0.0234 c -0.91869,0 -1.67806,0.22602 -2.27539,0.67969 -0.59734,0.44989 -0.89453,1.02935 -0.89453,1.73633 0,0.61623 0.1799,1.11633 0.53906,1.50195 0.36294,0.38184 0.91746,0.65176 1.66602,0.81055 0.37049,0.0756 0.71991,0.13835 1.04882,0.1875 0.3327,0.0491 0.64224,0.11188 0.92579,0.1875 0.37427,0.0983 0.65056,0.23637 0.83203,0.41406 0.18525,0.17769 0.27929,0.45385 0.27929,0.82812 0,0.43477 -0.19458,0.78211 -0.58398,1.04297 -0.38562,0.26086 -0.92742,0.39063 -1.62305,0.39063 -0.49148,0 -1.01664,-0.0962 -1.57617,-0.28906 -0.55953,-0.19281 -1.05326,-0.46689 -1.48047,-0.82227 h -0.0781 v 1.40625 c 0.50282,0.22306 0.9946,0.39244 1.47851,0.50586 0.4877,0.11342 1.03586,0.16992 1.64453,0.16992 0.56709,0 1.05238,-0.069 1.45313,-0.20508 0.40452,-0.1361 0.7581,-0.32444 1.06054,-0.5664 0.27599,-0.22306 0.48941,-0.49506 0.64063,-0.81641 0.155,-0.32135 0.23242,-0.64765 0.23242,-0.97656 0,-0.6049 -0.15899,-1.07564 -0.47656,-1.41211 -0.31757,-0.33647 -0.79039,-0.58756 -1.41797,-0.75391 -0.31001,-0.0794 -0.68865,-0.15681 -1.13476,-0.23242 -0.44612,-0.0756 -0.7893,-0.13848 -1.03126,-0.19141 -0.45745,-0.10585 -0.77751,-0.26056 -0.95898,-0.46093 -0.18147,-0.20037 -0.27148,-0.47653 -0.27148,-0.82813 0,-0.39318 0.18198,-0.71337 0.54492,-0.96289 0.36672,-0.24952 0.85005,-0.375 1.45117,-0.375 0.54819,0 1.08375,0.092 1.60547,0.27344 0.5255,0.17769 0.94818,0.40162 1.26953,0.67383 h 0.0801 v -1.32617 c -0.38184,-0.16635 -0.82115,-0.30651 -1.31641,-0.41993 -0.49526,-0.11341 -1.03926,-0.16992 -1.63281,-0.16992 z m -29.2168,0.15235 v 8.44335 h 1.12305 v -4.13281 h 4.21289 v 4.13281 h 1.12305 v -8.44335 h -1.12305 v 3.3125 h -4.21289 v -3.3125 z m 17.74414,0 v 5.05273 c 0,0.63892 0.0669,1.17864 0.19922,1.61719 0.1361,0.43855 0.35588,0.81303 0.66211,1.12304 0.26842,0.27221 0.59901,0.47731 0.99219,0.61719 0.39318,0.13988 0.85548,0.20899 1.38476,0.20899 0.51795,0 0.97193,-0.065 1.36133,-0.19727 0.3894,-0.13232 0.72843,-0.34158 1.01953,-0.62891 0.30623,-0.30244 0.52589,-0.68109 0.65821,-1.13476 0.1361,-0.45745 0.20508,-0.99301 0.20508,-1.60547 v -5.05273 h -1.12305 v 5.13867 c 0,0.41208 -0.0334,0.75734 -0.0977,1.03711 -0.0605,0.27598 -0.1631,0.52083 -0.31055,0.73632 -0.17012,0.24952 -0.39809,0.43774 -0.68164,0.5625 -0.28354,0.12098 -0.62672,0.18164 -1.03125,0.18164 -0.40074,0 -0.74587,-0.0627 -1.0332,-0.1875 -0.28354,-0.12475 -0.50748,-0.3109 -0.67383,-0.55664 -0.14744,-0.21549 -0.25409,-0.4541 -0.31836,-0.71875 -0.0605,-0.26464 -0.0898,-0.62653 -0.0898,-1.08398 v -5.10937 z m 16.56446,0 v 8.44335 h 5.5625 v -0.99804 h -4.43946 v -3.13477 h 4.43946 v -0.99804 h -4.43946 v -2.31446 h 4.43946 v -0.99804 z m -22.13868,0.79492 c 0.85064,0 1.5222,0.29719 2.01368,0.89453 0.49147,0.59355 0.73632,1.43878 0.73632,2.53515 0,1.10772 -0.249,1.95711 -0.74804,2.54688 -0.49526,0.58599 -1.16266,0.87891 -2.00196,0.87891 -0.83929,0 -1.50877,-0.29292 -2.00781,-0.87891 -0.49904,-0.58977 -0.74804,-1.43916 -0.74804,-2.54688 0,-1.09637 0.24277,-1.9416 0.73046,-2.53515 0.49148,-0.59734 1.1672,-0.89453 2.02539,-0.89453 z" />
			</g>
		</g>
		<g
   id="g81">
			<path
   id="polygon75"
   style="fill:#c9c9c9"
   d="M 424.88086,331.74609 348.7793,381.2207 v 13.80469 z" />
			<path
   id="polygon77"
   style="fill:#ffffff"
   d="m 424.88086,331.74609 -67.53711,56.16993 30.43555,21.25195 z" />
			<path
   id="polygon79"
   style="fill:#ffffff"
   d="M 424.88086,331.74609 324.61133,364.50195 348.7793,381.2207 Z" />
		</g>
	</g>
	<g
   id="g113">
		<g
   id="g87">
			
		</g>
		
		<g
   id="g105">
			<g
   id="g95">
				
				
			</g>
			
			<g
   id="g103">
				
				
			</g>
		</g>
		
		
		
	</g>
	<g
   id="g147">
		
		
		<g
   id="g145">
			
			<g
   id="g129">
				
				
				
				
			</g>
			
			
			
			
			
			
			
		</g>
	</g>
</g>
</svg>
